<svg width="35" height="35" viewBox="0 0 35 35" fill="none" xmlns="http://www.w3.org/2000/svg">
<path d="M17.5121 35.0001C16.5178 35.0001 15.5235 34.9205 14.5291 34.7415C13.5348 34.5626 12.5803 34.3239 11.6456 33.9859C10.711 33.6478 9.7962 33.2302 8.9212 32.7529C8.0462 32.2557 7.23085 31.6989 6.45528 31.0626C5.67971 30.4262 4.96381 29.7302 4.30756 28.9745C3.65131 28.2188 3.07461 27.4234 2.55756 26.5682C2.04051 25.7131 1.60301 24.8182 1.22517 23.8836C0.867216 22.9489 0.568923 21.9944 0.370059 21.0199C0.171195 20.0455 0.0518676 19.0512 0.0120948 18.0569C-0.0276779 17.0626 0.0319909 16.0682 0.171195 15.0739C0.3104 14.0796 0.529143 13.1052 0.847325 12.1705C1.14562 11.216 1.54335 10.3012 2.00073 9.40631C2.45812 8.51142 2.99506 7.67619 3.61153 6.88074C4.22801 6.08529 4.88426 5.34949 5.62005 4.67335C6.35585 3.99722 7.13141 3.38074 7.96664 2.84381C8.80187 2.30688 9.67687 1.8296 10.5916 1.43188L11.1485 1.21313C11.3672 1.1137 11.6058 1.09381 11.8445 1.19324C12.0831 1.27279 12.2422 1.43188 12.3615 1.65063C12.461 1.86938 12.4808 2.10801 12.3814 2.34665C12.3019 2.58529 12.1428 2.74438 11.924 2.86369L11.3871 3.08245C10.4326 3.48017 9.53767 3.97733 8.68256 4.57392C7.82744 5.15063 7.05187 5.82676 6.31608 6.56256C5.60017 7.29835 4.94391 8.09381 4.3871 8.96881C3.83028 9.82392 3.35301 10.7387 2.97517 11.6932C2.59733 12.6478 2.29903 13.6421 2.12006 14.6563C1.94108 15.6705 1.84165 16.6847 1.86154 17.7188C1.88142 18.7529 1.98085 19.7671 2.1996 20.7813C2.41835 21.7955 2.71664 22.7699 3.13426 23.7245C3.53198 24.679 4.02914 25.5739 4.62573 26.429C5.20244 27.2841 5.87858 28.0597 6.61437 28.7955C7.35017 29.5313 8.14563 30.1677 9.02063 30.7245C9.87574 31.2813 10.7905 31.7586 11.7451 32.1364C12.6996 32.5143 13.6939 32.8126 14.7081 32.9915C15.7223 33.1904 16.7365 33.2699 17.7706 33.2501C18.8047 33.2302 19.8189 33.1307 20.8331 32.912C21.8473 32.6932 22.8218 32.3949 23.7763 31.9773C24.8899 31.5001 25.924 30.9035 26.8985 30.2074C27.8729 29.4915 28.7479 28.6961 29.5434 27.7813C30.3388 26.8665 30.9951 25.8921 31.5718 24.8182C32.1286 23.7643 32.5661 22.6506 32.8843 21.4773C32.5064 21.4773 32.1485 21.4376 31.7706 21.3779C31.4127 21.2984 31.0547 21.1989 30.6968 21.0597C30.3587 20.9205 30.0206 20.7415 29.7025 20.5427C29.3843 20.3438 29.1059 20.1052 28.8473 19.8268C28.5888 19.5682 28.3502 19.2699 28.1314 18.9716C27.9326 18.6535 27.7536 18.3353 27.6144 17.9773C27.4752 17.6393 27.3559 17.2813 27.2962 16.9035C27.2166 16.5455 27.1968 16.1677 27.1968 15.7898V15.4518C26.7195 15.4915 26.2621 15.4716 25.7848 15.4319C25.3076 15.3722 24.8502 15.2728 24.4127 15.1336C23.9553 14.9944 23.5377 14.7955 23.1201 14.5768C22.7024 14.358 22.3246 14.0796 21.9666 13.7813C21.6087 13.483 21.2706 13.1449 20.9922 12.7671C20.6939 12.3893 20.4354 12.0114 20.2167 11.5938C19.9979 11.1762 19.8189 10.7387 19.6996 10.2813C19.5604 9.82392 19.4809 9.36654 19.4411 8.88926V8.33244C19.461 7.69608 19.5206 7.0796 19.6598 6.46313C19.1229 6.38358 18.6257 6.22449 18.1684 5.96597C17.6911 5.70744 17.2934 5.38926 16.9354 4.99154C16.5774 4.59381 16.3189 4.13642 16.1201 3.63926C15.9212 3.1421 15.8416 2.62506 15.8218 2.08813C15.8218 1.67051 15.9013 1.27279 16.0405 0.875059C16.1002 0.636422 16.2394 0.457445 16.4581 0.358013C16.6769 0.238695 16.8956 0.238695 17.1343 0.338127C17.3729 0.397786 17.5519 0.536991 17.6513 0.755741C17.7706 0.974491 17.7706 1.19324 17.6712 1.43188C17.5718 1.67051 17.5519 1.92904 17.5718 2.20745C17.5718 2.5654 17.6314 2.92335 17.7706 3.26142C17.9098 3.59949 18.1087 3.89779 18.3672 4.15631C18.6257 4.41483 18.924 4.61369 19.2621 4.7529C19.6002 4.8921 19.9581 4.95176 20.3161 4.95176H20.853C21.211 4.8921 21.5093 4.99154 21.728 5.28983C21.7081 5.46881 21.6684 5.66767 21.6286 5.84665C21.2706 6.60233 21.0916 7.41767 21.0718 8.2529C21.0718 8.96881 21.211 9.66483 21.4695 10.3211C21.7479 10.9773 22.1257 11.5739 22.6229 12.091C23.1201 12.608 23.6968 13.0057 24.353 13.2841C25.0093 13.5626 25.7053 13.7216 26.4212 13.7216C26.9382 13.7018 27.4553 13.6222 27.9524 13.5029C28.1911 13.4432 28.4297 13.4631 28.6485 13.6023C28.8672 13.7415 29.0064 13.9205 29.0462 14.1591V14.6961C28.9468 14.9944 28.8672 15.2927 28.8473 15.6109C28.8076 15.929 28.8274 16.2273 28.8672 16.5455C28.907 16.8637 28.9865 17.162 29.1059 17.4404C29.2252 17.7387 29.3644 17.9972 29.5632 18.2557C29.7422 18.5143 29.961 18.733 30.1996 18.9319C30.4382 19.1307 30.6968 19.3097 30.9752 19.4489C31.2536 19.5881 31.5519 19.6876 31.8502 19.7671C32.1485 19.8268 32.4666 19.8665 32.7649 19.8665C33.0632 19.8864 33.3615 19.8466 33.6399 19.7671C33.9581 19.6478 34.1968 19.7273 34.4155 19.9859C34.6541 20.1847 34.7337 20.4432 34.6343 20.7614C34.4553 21.7557 34.1968 22.7302 33.8587 23.6847C33.5206 24.6393 33.0831 25.554 32.586 26.429C32.0888 27.304 31.5121 28.1393 30.8559 28.9148C30.1996 29.6904 29.5036 30.4063 28.728 31.0626C27.9524 31.7188 27.1371 32.2955 26.2422 32.7927C25.3672 33.2898 24.4524 33.7273 23.4979 34.0654C22.5434 34.4035 21.5689 34.662 20.5746 34.841C19.5206 34.9205 18.5263 35.0001 17.5121 35.0001Z" fill="#00136F"/>
<path d="M35.7443 1C35.3864 1 35.0284 1.05966 34.6903 1.19886C34.3523 1.33807 34.054 1.53693 33.7955 1.79546C33.5369 2.05398 33.3381 2.35227 33.1989 2.69034C33.0597 3.02841 33 3.36648 33 3.74432C33 4.10228 33.0597 4.46023 33.1989 4.7983C33.3381 5.13637 33.5369 5.43466 33.7955 5.69318C34.054 5.95171 34.3523 6.15057 34.6903 6.28978C35.0284 6.42898 35.3665 6.48864 35.7443 6.48864C36.1222 6.48864 36.4602 6.42898 36.7983 6.28978C37.1364 6.15057 37.4347 5.95171 37.6932 5.69318C37.9517 5.43466 38.1506 5.13637 38.2898 4.7983C38.429 4.46023 38.4886 4.12216 38.4886 3.74432C38.4886 3.38637 38.429 3.02841 38.2898 2.69034C38.1506 2.35227 37.9517 2.05398 37.6932 1.79546C37.4347 1.53693 37.1364 1.33807 36.7983 1.19886C36.4602 1.05966 36.1023 1 35.7443 1Z" fill="#00136F"/>
<path d="M11.4432 21C11.0256 21 10.6079 21.0795 10.2301 21.2386C9.85225 21.3977 9.49431 21.6364 9.19601 21.9347C8.89772 22.233 8.67897 22.571 8.49999 22.9687C8.3409 23.3665 8.26135 23.7642 8.26135 24.1818C8.26135 24.5994 8.3409 25.017 8.49999 25.3949C8.65908 25.7926 8.89772 26.1307 9.19601 26.429C9.49431 26.7273 9.83237 26.946 10.2301 27.125C10.6278 27.2841 11.0256 27.3636 11.4432 27.3636C11.8608 27.3636 12.2784 27.2841 12.6562 27.125C13.054 26.9659 13.392 26.7273 13.6903 26.429C13.9886 26.1307 14.2074 25.7926 14.3863 25.3949C14.5454 24.9972 14.625 24.5994 14.625 24.1818C14.625 23.7642 14.5454 23.3665 14.3863 22.9687C14.2273 22.571 13.9886 22.233 13.6903 21.9347C13.392 21.6364 13.054 21.4176 12.6562 21.2386C12.2585 21.0597 11.8608 21 11.4432 21Z" fill="#00136F"/>
<path d="M19.9744 25.4744C19.7159 25.4744 19.4574 25.534 19.2187 25.6335C18.9801 25.7329 18.7613 25.8721 18.5824 26.0511C18.4034 26.23 18.2642 26.4488 18.1648 26.6874C18.0653 26.9261 18.0057 27.1846 18.0057 27.4431C18.0057 27.7016 18.0653 27.9602 18.1648 28.1988C18.2642 28.4374 18.4034 28.6562 18.5824 28.8352C18.7613 29.0141 18.9801 29.1533 19.2187 29.2528C19.4574 29.3522 19.7159 29.4119 19.9744 29.4119C20.2329 29.4119 20.4915 29.3522 20.7301 29.2528C20.9687 29.1533 21.1875 29.0141 21.3664 28.8352C21.5454 28.6562 21.6846 28.4374 21.7841 28.1988C21.8835 27.9602 21.9432 27.7016 21.9432 27.4431C21.963 27.1846 21.9034 26.9261 21.8238 26.6675C21.7244 26.4289 21.5852 26.2102 21.4062 26.0113C21.2272 25.8323 21.0085 25.6732 20.75 25.5937C20.4915 25.5141 20.2329 25.4744 19.9744 25.4744Z" fill="#00136F"/>
<path d="M31.4688 5.03125C31.2102 5.03125 30.9517 5.09091 30.7131 5.19034C30.4744 5.28977 30.2557 5.42898 30.0767 5.60795C29.8977 5.78693 29.7585 6.00568 29.6591 6.24432C29.5597 6.48295 29.5 6.74148 29.5 7C29.5 7.25852 29.5597 7.51705 29.6591 7.75568C29.7585 7.99432 29.8977 8.21307 30.0767 8.39205C30.2557 8.57102 30.4744 8.71023 30.7131 8.80966C30.9517 8.90909 31.2102 8.96875 31.4688 8.96875C31.7273 8.98864 31.9858 8.92898 32.2245 8.84943C32.4631 8.75 32.6818 8.6108 32.8807 8.43182C33.0597 8.25284 33.2188 8.03409 33.2983 7.77557C33.3978 7.53693 33.4375 7.27841 33.4177 7.01989C33.4177 6.76136 33.3779 6.50284 33.2784 6.2642C33.179 6.02557 33.0398 5.80682 32.8608 5.62784C32.6819 5.44886 32.4631 5.30966 32.2245 5.21023C31.9858 5.07102 31.7273 5.03125 31.4688 5.03125Z" fill="#00136F"/>
</svg>
